<?xml version="1.0" encoding="UTF-8"?>
<!DOCTYPE svg PUBLIC "-//W3C//DTD SVG 1.1//EN" "http://www.w3.org/Graphics/SVG/1.1/DTD/svg11.dtd">
<!-- Creator: CorelDRAW -->
<svg xmlns="http://www.w3.org/2000/svg" xml:space="preserve" width="96px" height="96px" version="1.1" style="shape-rendering:geometricPrecision; text-rendering:geometricPrecision; image-rendering:optimizeQuality; fill-rule:evenodd; clip-rule:evenodd"
viewBox="0 0 96 96"
 xmlns:xlink="http://www.w3.org/1999/xlink"
 xmlns:xodm="http://www.corel.com/coreldraw/odm/2003">
 <defs>
  <style type="text/css">
   <![CDATA[
    .fil0 {fill:black}
    .fil1 {fill:yellow}
   ]]>
  </style>
 </defs>
 <g id="Layer_x0020_1">
  <metadata id="CorelCorpID_0Corel-Layer"/>
  <g id="_1847538113200">
   <path class="fil0" d="M24.31 0l47.38 0c13.37,0 24.31,10.94 24.31,24.31l0 47.38c0,13.37 -10.94,24.31 -24.31,24.31l-47.38 0c-13.37,0 -24.31,-10.94 -24.31,-24.31l0 -47.38c0,-13.37 10.94,-24.31 24.31,-24.31z"/>
   <g>
    <path class="fil1" d="M62.37 55.71l-3.47 0c-0.06,0 -0.11,-0.09 -0.11,-0.16l0 -1.76c0,-0.07 0.05,-0.15 0.11,-0.15l3.22 0c0.61,0 1.17,0.35 1.17,0.97 0,0.34 -0.03,0.57 -0.28,0.81 -0.12,0.12 -0.41,0.29 -0.64,0.29zm-10.12 9.55c0,0.05 0.01,0.05 0.02,0.09 0.04,0.01 0.04,0.02 0.09,0.02l0 0 6.37 0 0 -4.6c0.16,0.04 0.59,0.52 0.72,0.66l1.39 1.4c0.23,0.23 0.46,0.46 0.69,0.7 0.77,0.76 1.01,1.08 2,1.48 0.17,0.06 0.35,0.12 0.53,0.17 0.18,0.05 0.36,0.09 0.57,0.12 0.19,0.04 0.42,0.07 0.63,0.07l0.01 0 12.62 0c1.8,0 3.31,-0.92 4.12,-2.15 0.17,-0.25 0.33,-0.51 0.45,-0.81 0.13,-0.31 0.23,-0.58 0.31,-0.94 0.37,-1.61 -0.04,-3.35 -1.1,-4.56l-1.23 -1.37c-0.28,-0.27 -0.58,-0.63 -0.84,-0.89 -0.05,-0.06 -0.12,-0.09 -0.12,-0.19 0,-0.09 0.06,-0.15 0.15,-0.15l8.04 0 0 -5.32 -10.36 0c-1.02,0 -2.4,0.51 -3.19,1.11 -0.28,0.2 -0.57,0.47 -0.78,0.75 -0.05,0.06 -0.09,0.1 -0.14,0.17 -0.27,0.36 -0.5,0.74 -0.67,1.17 -0.47,1.18 -0.39,2.35 0.05,3.53 0.18,0.47 0.47,0.99 0.77,1.38l1.79 1.97c0.08,0.08 0.24,0.18 0.24,0.32 0,0.08 -0.08,0.17 -0.18,0.17l-8.2 0c-0.64,0 -1.12,-0.4 -0.73,-0.61 0.41,-0.21 1.19,-0.78 1.52,-1.11 0.05,-0.06 0.08,-0.08 0.13,-0.15 0.06,-0.07 0.1,-0.1 0.15,-0.16 0.29,-0.38 0.49,-0.65 0.67,-1.1 0.46,-1.12 0.51,-2.38 0.22,-3.53 -0.08,-0.29 -0.2,-0.59 -0.33,-0.84 -0.07,-0.14 -0.12,-0.26 -0.2,-0.38l-0.36 -0.51c-0.21,-0.26 -0.48,-0.54 -0.73,-0.75 -0.91,-0.77 -2.37,-1.43 -3.89,-1.43l-11.2 0 0 16.27z"/>
    <path class="fil1" d="M19.22 36.24c0,0.43 0.09,1.01 0.21,1.4 0.02,0.07 0.04,0.14 0.06,0.21 0.1,0.32 0.34,0.85 0.51,1.14l0.33 0.5c0.15,0.2 0.35,0.4 0.5,0.57l0.51 0.58c0.05,0.04 0.1,0.08 0.14,0.13 0.05,0.06 0.06,0.09 0.12,0.14l0.54 0.56c0.05,0.05 0.25,0.26 0.25,0.31 0,0.12 -0.06,0.21 -0.18,0.21l-13.1 0 0 5.82 15.6 0c0.4,0 0.81,-0.04 1.16,-0.11 0.36,-0.07 0.68,-0.16 0.99,-0.29 0.41,-0.18 0.86,-0.43 1.21,-0.72 0.58,-0.47 1.11,-1.13 1.39,-1.82 0.3,-0.73 0.44,-1.3 0.44,-2.15 0,-0.76 -0.14,-1.39 -0.34,-1.95 -0.17,-0.45 -0.45,-0.91 -0.74,-1.28l-2.07 -2.27c-0.06,-0.06 -0.26,-0.23 -0.26,-0.33 0,-0.07 0.05,-0.15 0.11,-0.15l7.56 0 0 11.07 5.83 0 0 -11.05 7.06 0 0 -5.33 -22.88 0c-0.65,0 -1.48,0.28 -1.95,0.48 -0.3,0.13 -0.53,0.25 -0.8,0.41 -0.42,0.25 -0.81,0.63 -1.12,1.01 -0.43,0.53 -0.77,1.16 -0.94,1.82 -0.08,0.33 -0.14,0.69 -0.14,1.09z"/>
    <path class="fil1" d="M9.11 49.09c0,0.09 1.45,4.76 1.56,5.09 0.12,0.35 0.22,0.69 0.32,1.03 0.21,0.68 0.43,1.36 0.64,2.05l2.44 7.89c0.03,0.09 0.04,0.22 0.13,0.22l5.37 0c0.07,0 0.09,-0.08 0.11,-0.14 0.02,-0.07 0.04,-0.12 0.06,-0.19l0.72 -2.31c0.02,-0.07 0.03,-0.12 0.05,-0.19 0.03,-0.07 0.05,-0.14 0.07,-0.2 0.2,-0.73 0.51,-1.59 0.72,-2.33 0.04,-0.13 0.08,-0.25 0.12,-0.38l0.12 -0.39c0.12,0 0.09,0.01 0.12,0.13 0.02,0.05 0.04,0.13 0.06,0.19l0.23 0.78c0.04,0.14 0.09,0.27 0.12,0.4l1.18 3.9c0.04,0.12 0.08,0.25 0.12,0.38 0.03,0.12 0.07,0.35 0.17,0.35l5.42 0c0.09,0 0.16,-0.32 0.2,-0.45l1.4 -4.59c0.31,-0.99 0.62,-2.09 0.93,-3.07 0.32,-0.99 0.61,-2.06 0.93,-3.05 0.05,-0.16 0.1,-0.33 0.16,-0.51l0.46 -1.53c0.2,-0.62 0.42,-1.41 0.62,-2.05l0.31 -1.03c0,-0.04 -0.01,-0.02 -0.02,-0.08 -0.04,-0.01 -0.04,-0.02 -0.1,-0.02l-5.98 0c-0.1,0 -0.1,0.05 -0.14,0.2l-0.25 0.83c-0.11,0.38 -0.22,0.73 -0.33,1.11 -0.04,0.14 -0.6,2.07 -0.68,2.2 -0.08,-0.05 -0.07,-0.04 -0.12,-0.23l-1.12 -3.59c-0.03,-0.11 -0.06,-0.18 -0.09,-0.28 -0.02,-0.08 -0.04,-0.24 -0.13,-0.24l-6.67 0c-0.08,0 -0.1,0.16 -0.12,0.23 -0.02,0.09 -0.05,0.18 -0.08,0.27l-0.46 1.65c-0.04,0.15 -0.54,2.06 -0.63,2.19 -0.09,-0.05 -0.06,-0.05 -0.11,-0.23l-1.05 -3.54c-0.05,-0.19 -0.12,-0.36 -0.16,-0.55 -0.04,-0.01 -0.04,-0.02 -0.1,-0.02l-6.42 0c-0.05,0 -0.1,0.06 -0.1,0.1z"/>
    <path class="fil1" d="M75.01 38.12l-3.53 0c-0.06,0 -0.09,-0.07 -0.09,-0.13l0 -1.79c0,-0.06 0.03,-0.13 0.09,-0.13l3.36 0c0.53,0 1.06,0.39 1.06,1.01 0,0.44 -0.17,0.75 -0.53,0.93 -0.1,0.05 -0.22,0.11 -0.36,0.11zm-10.16 9.59c0,0.06 0.07,0.1 0.13,0.1l6.33 0 0 -4.55c0,-0.19 0.3,0.16 0.37,0.22l2.49 2.5c0.24,0.24 0.47,0.47 0.71,0.71 0.69,0.69 2.19,1.12 3.18,1.12l9.61 0 0 -5.82 -7.94 0c-0.3,0 -1,-0.08 -1,-0.44 0,-0.13 0.19,-0.2 0.38,-0.31 0.26,-0.15 0.73,-0.51 0.96,-0.69 0.43,-0.34 0.8,-0.82 1.07,-1.29 0.33,-0.56 0.59,-1.51 0.59,-2.23 0,-0.68 0.01,-0.97 -0.16,-1.65 -0.04,-0.17 -0.1,-0.33 -0.16,-0.49l-0.2 -0.47c-0.34,-0.58 -0.27,-0.47 -0.66,-0.97 -0.06,-0.07 -0.11,-0.11 -0.16,-0.17 -0.06,-0.07 -0.09,-0.11 -0.16,-0.17l-0.26 -0.24c-0.31,-0.24 -0.25,-0.21 -0.66,-0.49 -0.26,-0.17 -0.57,-0.31 -0.87,-0.45 -0.3,-0.13 -0.66,-0.24 -1,-0.33 -0.32,-0.08 -0.8,-0.17 -1.14,-0.17l-11.45 0 0 16.28z"/>
    <path class="fil1" d="M53.03 40.8c0,-0.07 0.05,-0.2 0.07,-0.27l0.42 -1.35c0.23,-0.79 0.54,-1.67 0.75,-2.43 0.03,-0.09 0.04,-0.21 0.11,-0.26l0.67 2.15c0.05,0.18 0.1,0.35 0.16,0.53 0.05,0.19 0.49,1.57 0.49,1.63 0,0.07 -0.05,0.16 -0.12,0.16l-2.41 0c-0.09,0 -0.14,-0.07 -0.14,-0.16zm-8.26 6.85c0,0.1 0.08,0.16 0.17,0.16l5.73 0c0.17,0 0.2,-0.3 0.29,-0.55 0.07,-0.22 0.12,-0.43 0.2,-0.64 0.07,-0.21 0.12,-0.43 0.2,-0.64 0.09,-0.27 0.11,-0.55 0.29,-0.55l5.28 0c0.17,0 0.18,0.06 0.22,0.19l0.61 1.92c0.03,0.09 0.07,0.27 0.16,0.27l5.68 0c0.04,0 0.07,-0.02 0.1,-0.04 0.13,-0.08 0.06,-0.15 0.01,-0.34 -0.03,-0.09 -0.05,-0.15 -0.08,-0.25 -0.14,-0.5 -0.34,-1.05 -0.47,-1.54 -0.13,-0.44 -0.34,-1.07 -0.48,-1.53l-1.11 -3.58c-0.11,-0.34 -0.2,-0.68 -0.32,-1.02l-1.9 -6.14c-0.19,-0.56 -0.36,-1.19 -0.55,-1.78 -0.04,-0.09 -0.08,-0.16 -0.19,-0.16l-8.82 0c-0.18,0 -0.2,0.25 -0.25,0.4 -0.05,0.16 -0.1,0.33 -0.16,0.51 -0.1,0.35 -0.2,0.67 -0.3,1.02l-0.62 2.04c-0.21,0.64 -0.41,1.39 -0.62,2.04 -0.21,0.64 -0.41,1.38 -0.62,2.04l-1.23 4.08c-0.18,0.64 -0.43,1.39 -0.61,2.04 -0.05,0.15 -0.1,0.33 -0.15,0.49l-0.46 1.56z"/>
    <path class="fil1" d="M42.64 58.54l-2.36 0c-0.24,0 -0.12,-0.29 -0.09,-0.41l0.25 -0.81c0.27,-0.86 0.55,-1.88 0.83,-2.7 0.03,-0.09 0.05,-0.18 0.08,-0.26 0.03,-0.07 0.07,-0.21 0.08,-0.28 0.09,0.02 0.05,0.03 0.11,0.23 0.03,0.1 0.06,0.18 0.09,0.28 0.06,0.18 0.11,0.36 0.17,0.54l0.33 1.08c0.06,0.18 0.66,2.11 0.66,2.18 0,0.08 -0.06,0.15 -0.15,0.15zm-10.78 6.72c0,0.04 0.07,0.11 0.11,0.11l5.83 0c0.12,0 0.2,-0.39 0.25,-0.56 0.15,-0.49 0.35,-1.07 0.49,-1.56 0.04,-0.12 0.05,-0.24 0.19,-0.24l5.35 0c0.13,0 0.14,0.12 0.17,0.23l0.5 1.56c0.05,0.14 0.14,0.57 0.25,0.57l5.71 0c0.25,0 0.11,-0.29 0.07,-0.43 -0.05,-0.18 -0.1,-0.33 -0.16,-0.51 -0.19,-0.65 -0.47,-1.46 -0.64,-2.08l-0.48 -1.55c-0.28,-0.83 -0.53,-1.77 -0.81,-2.61 -0.06,-0.18 -0.1,-0.33 -0.16,-0.52l-1.77 -5.7c-0.05,-0.17 -0.1,-0.34 -0.16,-0.51 -0.06,-0.18 -0.1,-0.36 -0.16,-0.53l-0.48 -1.56c-0.06,-0.19 -0.08,-0.38 -0.31,-0.38l-8.73 0c-0.2,0 -0.23,0.24 -0.27,0.38l-1.4 4.61c-0.1,0.34 -0.19,0.68 -0.31,1.03l-2.94 9.72c-0.03,0.1 -0.04,0.15 -0.07,0.25 -0.03,0.09 -0.07,0.18 -0.07,0.28z"/>
   </g>
  </g>
 </g>
</svg>
